name Walk3.mot
datacolumns 19
datarows 10
range 0.87000000 0.91500000
endheader

                time	   L_ground_force_vx	   L_ground_force_vy	   L_ground_force_vz	   L_ground_force_px	   L_ground_force_py	   L_ground_force_pz	   R_ground_force_vx	   R_ground_force_vy	   R_ground_force_vz	   R_ground_force_px	   R_ground_force_py	   R_ground_force_pz	   L_ground_torque_x	   L_ground_torque_y	   L_ground_torque_z	   R_ground_torque_x	   R_ground_torque_y	   R_ground_torque_z	
          0.87000000	        -13.89207798	         41.93993835	         -0.35050838	         -0.14429499	          0.00000000	         -0.01336996	         -0.00000000	          0.00000000	          0.00000000	          0.00000000	          0.00000000	          0.00000000	          0.00000000	          0.15308264	          0.00000000	          0.00000000	          0.00000000	          0.00000000	
          0.87500000	        -18.24364254	         64.84613723	         -0.71215194	         -0.18939401	          0.00000000	         -0.01789997	         -0.00000000	          0.00000000	          0.00000000	          0.00000000	          0.00000000	          0.00000000	          0.00000000	          0.21036841	          0.00000000	          0.00000000	          0.00000000	          0.00000000	
          0.88000000	        -22.77976105	         92.56888358	         -1.18826496	         -0.23637952	          0.00000000	         -0.02275731	         -0.00000000	          0.00000000	          0.00000000	          0.00000000	          0.00000000	          0.00000000	          0.00000000	          0.27376394	          0.00000000	          0.00000000	          0.00000000	          0.00000000	
          0.88500000	        -27.07028395	        124.43184836	         -1.78419550	         -0.28136784	          0.00000000	         -0.02758004	         -0.00000000	          0.00000000	          0.00000000	          0.00000000	          0.00000000	          0.00000000	          0.00000000	          0.33946415	          0.00000000	          0.00000000	          0.00000000	          0.00000000	
          0.89000000	        -30.65273586	        159.18755611	         -2.49094251	         -0.32142781	          0.00000000	         -0.03203569	         -0.00000000	          0.00000000	          0.00000000	         -0.00000000	          0.00000000	         -0.00000000	          0.00000000	          0.40396355	          0.00000000	          0.00000000	          0.00000000	          0.00000000	
          0.89500000	        -33.32560680	        195.28539181	         -3.26472670	         -0.35500793	          0.00000000	         -0.03592066	         -0.00000000	          0.00000000	          0.00000000	         -0.00000000	          0.00000000	         -0.00000000	          0.00000000	          0.46576627	          0.00000000	          0.00000000	          0.00000000	          0.00000000	
          0.90000000	        -35.39342384	        231.17757148	         -4.01381065	         -0.38156342	          0.00000000	         -0.03915691	         -0.00000000	         -0.00000000	         -0.00000000	         -0.00000000	          0.00000000	         -0.00000000	          0.00000000	          0.52604835	          0.00000000	          0.00000000	          0.00000000	          0.00000000	
          0.90500000	        -37.53200091	        265.56107100	         -4.62057179	         -0.40124611	          0.00000000	         -0.04175310	         -0.00000000	         -0.00000000	         -0.00000000	         -0.00000000	          0.00000000	         -0.00000000	          0.00000000	          0.58716560	          0.00000000	          0.00000000	          0.00000000	          0.00000000	
          0.91000000	        -40.43383562	        297.62997268	         -4.95960612	         -0.41465964	          0.00000000	         -0.04376885	         -0.00000000	         -0.00000001	         -0.00000000	         -0.00000000	          0.00000000	         -0.00000000	          0.00000000	          0.65005393	          0.00000000	          0.00000000	          0.00000000	          0.00000000	
          0.91500000	        -44.57446271	        327.20368385	         -4.90217721	         -0.42266403	          0.00000000	         -0.04528992	          0.00000000	         -0.00000001	         -0.00000000	         -0.00000000	          0.00000000	         -0.00000000	          0.00000000	          0.71254231	          0.00000000	          0.00000000	          0.00000000	          0.00000000	
